<svg viewBox="0 0 1440 320" xmlns="http://www.w3.org/2000/svg" preserveAspectRatio="none">
  <!-- Top-right wave -->
  <path fill="#05B6D3" fill-opacity="0.70" d="M0,64L48,85.3C96,107,192,149,288,170.7C384,192,480,192,576,186.7C672,181,768,171,864,149.3C960,128,1056,96,1152,80C1248,64,1344,64,1392,64L1440,64L1440,0L1392,0C1344,0,1248,0,1152,0C1056,0,960,0,864,0C768,0,672,0,576,0C480,0,384,0,288,0C192,0,96,0,48,0L0,0Z"></path>

  <!-- Bottom-left wave -->
  <path fill="#EF863E" fill-opacity="0.35" d="M0,288L48,266.7C96,245,192,203,288,176C384,149,480,139,576,138.7C672,139,768,149,864,165.3C960,181,1056,203,1152,197.3C1248,192,1344,160,1392,144L1440,128L1440,320L1392,320C1344,320,1248,320,1152,320C1056,320,960,320,864,320C768,320,672,320,576,320C480,320,384,320,288,320C192,320,96,320,48,320L0,320Z"></path>
</svg>
